<svg height="26" viewBox="0 0 110 26" width="110" xmlns="http://www.w3.org/2000/svg" xmlns:xlink="http://www.w3.org/1999/xlink"><mask id="a" fill="#fff"><path d="m0 .07842449h15.1165569v21.14595921h-15.1165569z" fill="#fff" fill-rule="evenodd"/></mask><mask id="b" fill="#fff"><path d="m.23648668.11142857h2.96866828v2.95702245h-2.96866828z" fill="#fff" fill-rule="evenodd"/></mask><g fill="#13227a" fill-rule="evenodd" opacity=".502906"><path d="m12.6699225 7.60728163c0 1.42602041-.4882082 2.60530617-1.4920581 3.60577547-1.0123729 1.0084286-2.19653752 1.4987143-3.61961258 1.4987143-1.42334141 0-2.60723971-.4902857-3.61961259-1.4987143-1.01237289-1.0084285-1.50484262-2.18771424-1.50484262-3.60577547 0-1.41779592.49246973-2.59708163 1.50484262-3.6055102 1.01263922-1.00869388 2.19653753-1.49871429 3.61961259-1.49871429s2.60697338.49002041 3.61961258 1.49871429c1.0038499 1.00020408 1.4920581 2.1797551 1.4920581 3.6055102m-5.11167068-7.52885714c-2.07774819 0-3.87583536.74206122-5.34472155 2.20495918-1.4688862 1.46289796-2.21358354 3.2542449-2.21358354 5.32389796 0 2.07018368.74469734 3.86126527 2.21358354 5.32389797 1.46861985 1.4631633 3.26670702 2.2049592 5.34472155 2.2049592 1.9690799 0 3.68699758-.666449 5.11167068-1.9813061v6.8573673c0 .3337551.126247.6322245.3646247.8630408.235448.2284286.5345521.3491429.8650848.3491429.3323971 0 .6307021-.1220408.8624213-.3531225.2319854-.2308163.3545036-.5279592.3545036-.8590612v-12.40491837c0-2.06965306-.7446973-3.86073469-2.2135835-5.32389796-1.4688862-1.46289796-3.26723974-2.20495918-5.34472158-2.20495918" mask="url(#a)" transform="translate(0 4.664214)"/><path d="m29.732707 12.2714959c0 1.4260204-.4879419 2.6053061-1.4917917 3.6057755-1.0126393 1.0084286-2.1968039 1.4987143-3.619879 1.4987143-1.4233414 0-2.6072397-.4902857-3.6196126-1.4987143-1.0123729-1.0084285-1.5045762-2.1877143-1.5045762-3.6057755 0-1.4177959.4922033-2.59708161 1.5045762-3.60551019 1.0126393-1.00869387 2.1965376-1.49871428 3.6196126-1.49871428 1.4230751 0 2.6069734.49002041 3.6196126 1.49871428 1.0041162 1.00020409 1.4920581 2.17975509 1.4920581 3.60551019m-5.1116707-7.52885712c-2.0777482 0-3.8758353.74206122-5.3447215 2.20495918-1.4686199 1.46289796-2.2133172 3.25424494-2.2133172 5.32389794v12.4049184c0 .331102.1225181.6282449.3542373.8590612.2317191.2310816.5300242.3531225.8626876.3531225.3323971 0 .6307022-.1220409.8624213-.3531225.2317192-.2308163.3545037-.5279592.3545037-.8590612v-6.8693061c1.4268038 1.3230816 3.1492494 1.9932449 5.1241888 1.9932449 2.0777482 0 3.8761017-.741796 5.3447216-2.2049592 1.4688862-1.4626327 2.2135835-3.2539796 2.2135835-5.323898 0-2.069653-.7446973-3.86073468-2.2135835-5.32389794-1.4688862-1.46289796-3.2672397-2.20495918-5.3447216-2.20495918"/><path d="m44.3224358 5.26887347c-.8046247-.34914286-1.7757143-.52610204-2.8866343-.52610204-1.8076756 0-3.527724.68183673-5.1244553 2.02879592v-.81661225c0-.33110204-.1225181-.6282449-.3542372-.85906122-.2319855-.23081633-.5300243-.35312245-.8626877-.35312245-.3323971 0-.6307022.12204081-.8624213.35312245-.2319855.23081632-.3545036.52795918-.3545036.85906122v12.6330816c0 .3313674.1225181.6282449.3542373.858796.2317191.2316122.5300242.3533877.8626876.3533877.3329298 0 .6312349-.1220408.8624213-.3531224.2319855-.2308164.3545036-.5279592.3545036-.8590613v-6.3164081c0-1.4257551.4919371-2.60477554 1.5048427-3.60551023 1.0123728-1.00869388 2.1962711-1.49897959 3.6196126-1.49897959.779322 0 1.4449152.13053061 1.9733414.38628571.1614043.08038775.3457142.12097959.5478692.12097959.3323971 0 .6307022-.12204081.8624213-.35285714.2319855-.23081633.3545036-.52795918.3545036-.85932653 0-.33906123-.1182566-.63620408-.3417191-.85932653-.1504842-.14963266-.3217433-.26212245-.5097821-.33402041"/><path d="m1.72082082.11134898c-.40484261 0-.75694915.14644898-1.04726392.43536735-.29004842.28891836-.43707022.63991836-.43707022 1.04318367 0 .41361224.14808717.76779592.44026635 1.05246939.28951574.28255102.64082324.42608163 1.04406779.42608163.41336562 0 .76760291-.14432653 1.05365618-.42926531.28578692-.28467347.43067796-.63779591.43067796-1.04928571 0-.40114286-.14382566-.75134694-.42774818-1.04026531-.28232446-.28679591-.64748184-.43828571-1.05658596-.43828571" mask="url(#b)" transform="translate(46.610169 .15401)"/><path d="m48.3309903 4.74266531c-.3323971 0-.6307022.12204081-.8624213.35312245-.2319855.23081632-.3545036.52795918-.3545036.85906122v12.63334692c0 .3311021.1225181.6282449.3542373.8590612.2317191.2310817.5300242.3531225.8626876.3531225.3302664 0 .6291041-.1207143.8648184-.3491429.2386441-.2313469.3648911-.5298163.3648911-.8630408v-12.63334692c0-.33322449-.126247-.63169388-.3651574-.86357143-.2357143-.22789796-.5345521-.34861224-.8645521-.34861224"/><path d="m65.3874092 5.95492857c0-.34383673-.1275787-.6457551-.3696852-.87391837-.2351816-.2212653-.5324213-.3382653-.8597579-.3382653-.3284019 0-.6283051.11938775-.8672155.34489796l-.008523.00848979c-.092155.09179592-.1661985.19314286-.22.30085715l-4.7110896 10.2644286-4.704431-10.2514286-.0069249-.01406123c-.0641889-.12708163-.1361017-.22948979-.2197337-.31279592l-.0173123-.01644898c-.2413075-.21489796-.5300242-.32393877-.8578935-.32393877-.3323971 0-.6307022.12204081-.8626876.35312245-.2317192.23081632-.3542373.52795918-.3542373.85906122 0 .17244898.0274334.32818367.0815012.46295919l5.8638257 12.73708164c.0471428.1071837.1195883.2101224.2152058.3048367.2234624.2228572.5217675.3406531.8626876.3406531.353971 0 .6397579-.1061225.8496368-.3149184l.0005327-.0007959c.0964165-.0957755.1731235-.2069388.2261259-.3257959l5.8576998-12.72328573c.0679176-.14804082.102276-.30987756.102276-.4807347"/><path d="m77.9263705 12.2714959c0 1.4260204-.4882083 2.6053061-1.4920582 3.6057755-1.0123728 1.0084286-2.1965375 1.4987143-3.6196125 1.4987143-1.4233414 0-2.6072398-.4902857-3.6196126-1.4987143-1.0126393-1.0084285-1.5048426-2.1877143-1.5048426-3.6057755 0-1.4177959.4922033-2.59708161 1.5048426-3.60551019 1.0126392-1.00869387 2.1965375-1.49871428 3.6196126-1.49871428 1.4228087 0 2.6069733.49002041 3.6196125 1.49871428 1.0038499 1.00020409 1.4920582 2.17975509 1.4920582 3.60551019m-5.1116707-7.52885712c-2.0777482 0-3.8758354.74206122-5.3447216 2.20495918-1.4686198 1.46289796-2.2135835 3.25424494-2.2135835 5.32389794 0 2.0701837.7449637 3.8612653 2.2133172 5.323898 1.4688862 1.4631632 3.2669733 2.2049592 5.3449879 2.2049592 1.8063438 0 3.5218644-.6807755 5.1116707-2.0264082v.8142245c0 .3334898.1262469.6322245.3646247.8630408.2351816.2284286.5342857.3491429.8648184.3491429.3326634 0 .6309685-.1220409.8624213-.3531225.2322518-.2308163.3547699-.5276939.3547699-.8590612v-6.3166735c0-2.069653-.7446973-3.86073468-2.2135835-5.32389794-1.4691525-1.46289796-3.2672397-2.20495918-5.3447215-2.20495918"/><path d="m89.6855569 7.16721837c1.2861743 0 2.3797821.40804081 3.342615 1.24746939.2130751.19606122.4879419.29979591.795569.29979591.3326635 0 .6309685-.12204081.8626877-.35285714.2317191-.23108163.3542373-.52795918.3542373-.85906122 0-.18412245-.0428814-.36320409-.1278451-.53353062-.075908-.15069387-.1693946-.2817551-.2775302-.38946938l-.0221066-.02042858c-.6719855-.58022449-1.4374576-1.03283673-2.2756416-1.34536734s-1.7307022-.47118368-2.6519855-.47118368c-2.0777482 0-3.8761017.74206123-5.3447215 2.20495919-1.4688862 1.46316326-2.2135836 3.2542449-2.2135836 5.323898 0 2.0701836.7446974 3.8612653 2.2135836 5.3241632 1.4686198 1.462898 3.266707 2.2046939 5.3447215 2.2046939.9220823 0 1.8127361-.1583878 2.6463923-.4709184.8325908-.3122653 1.5991283-.7643469 2.2791041-1.3437755l.0245036-.022551c.2402421-.2393061.3672881-.5406939.3672881-.8717959 0-.328449-.1211864-.6261225-.3505084-.8611837-.2322519-.2377143-.532155-.3634694-.8664165-.3634694-.2855206 0-.533753.0825102-.744431.2501837-.4639709.383898-.9923971.6937755-1.5711622.9211429-.5702422.2241836-1.1708475.338-1.78477.338-1.4233414 0-2.6072397-.4902858-3.6198789-1.4987143-1.0035836-.9999388-1.4917918-2.1794898-1.4917918-3.6057755 0-1.4262858.4882082-2.60557147 1.4917918-3.60551025 1.0126392-1.00842857 2.1965375-1.49871428 3.6198789-1.49871428"/><path d="m109.511259 5.93834694c-.012784-.325-.139564-.61604082-.367022-.84261225-.231719-.23108163-.530024-.35312245-.862421-.35312245-.34092 0-.634697.11355103-.85017.32791837-.134503.13397959-.23891.29767347-.311355.48604082l-4.122737 9.83383677-4.1235346-9.83383677c-.0719129-.18836735-.1677966-.34330612-.285787-.46083674-.2319854-.23108163-.5300242-.35312245-.8624213-.35312245-.3302663 0-.6291041.12071429-.8648184.34887756-.2389104.23134693-.364891.52981632-.364891.86330612 0 .14406122.0234383.29316326.0697821.44279592l.0061259.01963265 5.0964893 12.15844901-2.3619373 5.6539387c-.0567312.1294694-.0857627.2796327-.0857627.4467756 0 .331102.1227845.6282449.3545037.8590612.2317191.2310816.5302903.3531224.8626873.3531224.332131 0 .634431-.1262857.875472-.3661224.118257-.1177959.210412-.2650408.274068-.4374898l7.840097-18.68683675.011453-.0302449c.047942-.14485714.072445-.28361224.072445-.41308163z"/><path d="m7.44098063 8.72719184c-.40723971 0-.7979661.06977551-1.16152542.19659183.2607506.273.42162227.6409796.42162227 1.04716327 0 .83969386-.68317191 1.52020406-1.52615012 1.52020406-.40803874 0-.77745763-.1605102-1.05125908-.4199796-.12731235.3624082-.19736077.7516123-.19736077 1.157 0 1.933551 1.57355932 3.5012449 3.51467312 3.5012449s3.51467317-1.5676939 3.51467317-3.5012449-1.57355937-3.50097956-3.51467317-3.50097956"/><path d="m24.6348596 8.72719184c-.4072397 0-.7979661.06977551-1.1615255.19659183.2604843.273.4216223.6409796.4216223 1.04716327 0 .83969386-.6834382 1.52020406-1.5261501 1.52020406-.4080387 0-.7774576-.1605102-1.0512591-.4199796-.1273123.3624082-.1973608.7516123-.1973608 1.157 0 1.933551 1.5735594 3.5012449 3.5146732 3.5012449s3.5146731-1.5676939 3.5146731-3.5012449-1.5735593-3.50097956-3.5146731-3.50097956"/></g></svg>