<svg fill="none" height="18" viewBox="0 0 82 18" width="82" xmlns="http://www.w3.org/2000/svg"><g fill="#001042"><path d="m0 7.45313v-2.99636h1.55577v-3.44959h3.21111v3.44959h2.93729v2.99636h-2.93729v4.77147c0 .9149.19914 1.5318.59742 1.8507.40657.3106 1.31514.4742 2.7257.491l.19914 3.1475h-.68454c-1.97479 0-3.47662-.3945-4.50551-1.1835-1.02888-.7889-1.54332-2.2242-1.54332-4.3057v-4.77147z"/><path d="m9.35952 17.6382v-17.6382h3.18618v5.51431c.9211-.78896 2.091-1.18344 3.5099-1.18344 3.5679 0 5.3518 2.13186 5.3518 6.39563v6.9117h-3.1862v-6.0808c0-1.5108-.1867-2.59351-.5601-3.24817-.3734-.65467-1.1284-.982-2.2652-.982-.8795 0-1.5765.26858-2.0909.80574-.5062.52877-.7593 1.26317-.7593 2.20323v7.302z"/><path d="m22.54 11.1167c0-1.88842.6596-3.49152 1.9789-4.80924 1.3276-1.31773 2.9456-1.97659 4.854-1.97659 2.008 0 3.6468.67985 4.9163 2.03954s1.9042 3.00895 1.9042 4.94779c0 .2098-.0166.5036-.0497.8813h-10.3428c.2738.8561.7343 1.5233 1.3815 2.0017.6555.47 1.4687.7051 2.4395.7051.7965 0 1.4603-.1343 1.9914-.4029.5393-.2686 1.0205-.6925 1.4437-1.2716l2.6884 1.4982c-1.394 2.1319-3.4352 3.1978-6.1235 3.1978-2.0412 0-3.7339-.6463-5.0781-1.9388-1.3359-1.2926-2.0038-2.9167-2.0038-4.8723zm3.3356-1.47296h6.9325c-.6472-1.54434-1.7923-2.31651-3.4352-2.31651-.7633 0-1.4603.21402-2.0909.64208-.6306.42805-1.0994.98619-1.4064 1.67443z"/><path d="m36.9775 11.1167c0-1.88842.6597-3.49152 1.979-4.80924 1.3276-1.31773 2.9456-1.97659 4.854-1.97659 1.4105 0 2.6676.39448 3.7712 1.18344v-1.05754h3.1862v13.18143h-3.1862v-.8813c-1.1202.7722-2.3772 1.1625-3.7712 1.1709-1.8835 0-3.4932-.6673-4.8291-2.0018s-2.0039-2.9376-2.0039-4.8093zm4.1695-2.65639c-.7468.75538-1.1201 1.64089-1.1201 2.65639 0 1.0156.3733 1.9011 1.1201 2.6565.7551.7554 1.6387 1.1331 2.651 1.1331 1.0206 0 1.9043-.3777 2.6511-1.1331.755-.7554 1.1326-1.6409 1.1326-2.6565 0-1.0155-.3776-1.90101-1.1326-2.65639-.7468-.75539-1.6305-1.13308-2.6511-1.13308-1.0123 0-1.8959.37769-2.651 1.13308z"/><path d="m51.7262 7.45313v-2.99636h1.5558v-3.44959h3.2111v3.44959h2.9373v2.99636h-2.9373v4.77147c0 .9149.1992 1.5318.5974 1.8507.4066.3106 1.3152.4742 2.7257.491l.1992 3.1475h-.6846c-1.9747 0-3.4766-.3945-4.5055-1.1835-1.0288-.7889-1.5433-2.2242-1.5433-4.3057v-4.77147z"/><path d="m74.8512 17.6382v-13.18143h3.2111v1.27156c.9044-.91485 2.1864-1.38067 3.8459-1.39746l-.2116 3.437c-1.4106 0-2.3689.2476-2.8751.74279-.5061.4952-.7592 1.30514-.7592 2.42984v6.6977z"/><path clip-rule="evenodd" d="m60.0029 11.1167c0 1.8717.6638 3.4748 1.9914 4.8093 1.3359 1.3345 2.9456 2.0018 4.8291 2.0018 1.8918 0 3.5016-.6673 4.8291-2.0018 1.3359-1.3345 2.0039-2.9376 2.0039-4.8093 0-1.88842-.6638-3.49152-1.9914-4.80924-1.3193-1.31773-2.9332-1.97659-4.8416-1.97659v2.99636c1.0206 0 1.9043.37769 2.6511 1.13308.755.75538 1.1326 1.64089 1.1326 2.65639 0 1.0156-.3776 1.9011-1.1326 2.6565-.7468.7554-1.6305 1.1331-2.6511 1.1331-1.0123 0-1.8959-.3777-2.651-1.1331-.7468-.7554-1.1202-1.6409-1.1202-2.6565z" fill-rule="evenodd"/></g></svg>