<svg width="1440" height="439" viewBox="0 0 1440 439" fill="none" xmlns="http://www.w3.org/2000/svg">
<mask id="mask0" mask-type="alpha" maskUnits="userSpaceOnUse" x="0" y="0" width="1441" height="439">
<rect width="1441" height="439" fill="#C4C4C4"/>
</mask>
<g mask="url(#mask0)">
<path d="M1415.8 -6.70049L1572.4 91.7967L1576 -149.421L1415.8 -6.70049Z" fill="#2C74AA" stroke="#2C74AA" stroke-width="1.51"/>
<path d="M1415.8 -6.7005L1532.8 123.959L1572.4 91.7966L1415.8 -6.7005Z" fill="#2A71A7" stroke="#2A71A7" stroke-width="1.51"/>
<path d="M1415.8 -6.7005L1450 182.253L1532.8 123.959L1415.8 -6.7005Z" fill="#2A71A7" stroke="#2A71A7" stroke-width="1.51"/>
<path d="M1457.2 403.369L1354.6 447.592L1527.4 491.816L1457.2 403.369Z" fill="#24659A" stroke="#24659A" stroke-width="1.51"/>
<path d="M1288 -6.7005L1347.4 222.456L1415.8 -6.7005H1288Z" fill="#2D75AB" stroke="#2D75AB" stroke-width="1.51"/>
<path d="M1415.8 -6.7005L1347.4 222.456L1450 182.253L1415.8 -6.7005Z" fill="#2A71A7" stroke="#2A71A7" stroke-width="1.51"/>
<path d="M1275.4 286.781L1354.6 447.593L1455.4 278.74L1275.4 286.781Z" fill="#276BA1" stroke="#276BA1" stroke-width="1.51"/>
<path d="M1347.4 222.456L1275.4 286.781L1455.4 278.74L1347.4 222.456Z" fill="#296EA4" stroke="#296EA4" stroke-width="1.51"/>
<path d="M1450 182.253L1347.4 222.456L1455.4 278.74L1450 182.253Z" fill="#286DA3" stroke="#286DA3" stroke-width="1.51"/>
<path d="M1455.4 278.74L1354.6 447.593L1457.2 403.369L1455.4 278.74Z" fill="#26699D" stroke="#26699D" stroke-width="1.51"/>
<path d="M1288 -6.7005L1208.8 79.7358L1347.4 222.456L1288 -6.7005Z" fill="#2D76AD" stroke="#2D76AD" stroke-width="1.51"/>
<path d="M1208.8 79.7358L1174.6 140.04L1347.4 222.456L1208.8 79.7358Z" fill="#2D75AC" stroke="#2D75AC" stroke-width="1.51"/>
<path d="M1192.6 431.511L1145.8 560.161L1352.8 616.445L1192.6 431.511Z" fill="#25689C" stroke="#25689C" stroke-width="1.51"/>
<path d="M1275.4 286.781L1208.8 365.176L1354.6 447.592L1275.4 286.781Z" fill="#286CA2" stroke="#286CA2" stroke-width="1.51"/>
<path d="M1192.6 431.511L1352.8 616.445L1354.6 447.593L1192.6 431.511Z" fill="#25679C" stroke="#25679C" stroke-width="1.51"/>
<path d="M1208.8 365.177L1192.6 431.511L1354.6 447.593L1208.8 365.177Z" fill="#276CA0" stroke="#276CA0" stroke-width="1.51"/>
<path d="M1174.6 140.04L1275.4 286.781L1347.4 222.456L1174.6 140.04Z" fill="#2B72A8" stroke="#2B72A8" stroke-width="1.51"/>
<path d="M1178.2 -101.177L1208.8 79.7358L1288 -6.70046L1178.2 -101.177Z" fill="#307BB2" stroke="#307BB2" stroke-width="1.51"/>
<path d="M1174.6 140.04L1208.8 365.176L1275.4 286.781L1174.6 140.04Z" fill="#2B72A7" stroke="#2B72A7" stroke-width="1.51"/>
<path d="M1174.6 140.04L1084.6 158.131L1208.8 365.176L1174.6 140.04Z" fill="#2D75AB" stroke="#2D75AB" stroke-width="1.51"/>
<path d="M1084.6 158.131L1039.6 324.974L1208.8 365.177L1084.6 158.131Z" fill="#2C74AA" stroke="#2C74AA" stroke-width="1.51"/>
<path d="M1178.2 -101.177L1057.6 -6.70046L1208.8 79.7358L1178.2 -101.177Z" fill="#317DB5" stroke="#317DB5" stroke-width="1.51"/>
<path d="M1039.6 419.45L1192.6 431.511L1208.8 365.177L1039.6 419.45Z" fill="#296EA4" stroke="#296EA4" stroke-width="1.51"/>
<path d="M1039.6 324.974V419.451L1208.8 365.177L1039.6 324.974Z" fill="#2B71A7" stroke="#2B71A7" stroke-width="1.51"/>
<path d="M1057.6 -6.7005L1174.6 140.04L1208.8 79.7358L1057.6 -6.7005Z" fill="#307BB1" stroke="#307BB1" stroke-width="1.51"/>
<path d="M1057.6 -6.7005L1084.6 158.131L1174.6 140.04L1057.6 -6.7005Z" fill="#307BB2" stroke="#307BB2" stroke-width="1.51"/>
<path d="M1039.6 419.45L1145.8 560.161L1192.6 431.511L1039.6 419.45Z" fill="#286DA2" stroke="#286DA2" stroke-width="1.51"/>
<path d="M1039.6 419.45L1054 612.424L1145.8 560.161L1039.6 419.45Z" fill="#276CA1" stroke="#276CA1" stroke-width="1.51"/>
<path d="M982 407.39L973 620.465L1039.6 419.451L982 407.39Z" fill="#2A70A5" stroke="#2A70A5" stroke-width="1.51"/>
<path d="M1039.6 419.45L973 620.465L1054 612.424L1039.6 419.45Z" fill="#286DA2" stroke="#286DA2" stroke-width="1.51"/>
<path d="M928 198.334L960.4 262.659L1084.6 158.131L928 198.334Z" fill="#2F7AB0" stroke="#2F7AB0" stroke-width="1.51"/>
<path d="M1057.6 -6.7005L933.4 63.6546L1084.6 158.131L1057.6 -6.7005Z" fill="#327EB5" stroke="#327EB5" stroke-width="1.51"/>
<path d="M933.4 63.6546L928 198.334L1084.6 158.132L933.4 63.6546Z" fill="#317DB3" stroke="#317DB3" stroke-width="1.51"/>
<path d="M960.4 262.659L1039.6 324.974L1084.6 158.131L960.4 262.659Z" fill="#2E77AE" stroke="#2E77AE" stroke-width="1.51"/>
<path d="M982 407.39L1039.6 419.451V324.974L982 407.39Z" fill="#2B73A9" stroke="#2B73A9" stroke-width="1.51"/>
<path d="M1025.2 -71.0251L933.4 63.6546L1057.6 -6.70048L1025.2 -71.0251Z" fill="#3382B8" stroke="#3382B8" stroke-width="1.51"/>
<path d="M920.8 -87.1063L933.4 63.6546L1025.2 -71.0252L920.8 -87.1063Z" fill="#3584BB" stroke="#3584BB" stroke-width="1.51"/>
<path d="M960.4 262.659L982 407.39L1039.6 324.974L960.4 262.659Z" fill="#2D75AB" stroke="#2D75AB" stroke-width="1.51"/>
<path d="M785.8 548.1L973 620.465L982 407.39L785.8 548.1Z" fill="#2A70A6" stroke="#2A70A6" stroke-width="1.51"/>
<path d="M960.4 262.659L811 302.862L982 407.39L960.4 262.659Z" fill="#2E77AE" stroke="#2E77AE" stroke-width="1.51"/>
<path d="M811 302.862L787.6 455.633L982 407.39L811 302.862Z" fill="#2E77AD" stroke="#2E77AD" stroke-width="1.51"/>
<path d="M787.6 455.633L785.8 548.1L982 407.39L787.6 455.633Z" fill="#2C74AA" stroke="#2C74AA" stroke-width="1.51"/>
<path d="M928 198.334L811 302.862L960.4 262.659L928 198.334Z" fill="#307AB1" stroke="#307AB1" stroke-width="1.51"/>
<path d="M766 -56.9541L773.2 47.5735L920.8 -87.1063L766 -56.9541Z" fill="#3687BF" stroke="#3687BF" stroke-width="1.51"/>
<path d="M920.8 -87.1063L773.2 47.5735L933.4 63.6546L920.8 -87.1063Z" fill="#3584BC" stroke="#3584BC" stroke-width="1.51"/>
<path d="M769.6 186.274L928 198.334L933.4 63.6546L769.6 186.274Z" fill="#327FB6" stroke="#327FB6" stroke-width="1.51"/>
<path d="M773.2 47.5735L769.6 186.274L933.4 63.6547L773.2 47.5735Z" fill="#3482BA" stroke="#3482BA" stroke-width="1.51"/>
<path d="M769.6 186.274L811 302.862L928 198.334L769.6 186.274Z" fill="#317DB4" stroke="#317DB4" stroke-width="1.51"/>
<path d="M638.2 349.095L787.6 455.633L811 302.862L638.2 349.095Z" fill="#307AB1" stroke="#307AB1" stroke-width="1.51"/>
<path d="M769.6 186.274L638.2 349.095L811 302.862L769.6 186.274Z" fill="#317EB5" stroke="#317EB5" stroke-width="1.51"/>
<path d="M679.6 164.162L638.2 349.095L769.6 186.274L679.6 164.162Z" fill="#3381B8" stroke="#3381B8" stroke-width="1.51"/>
<path d="M679.6 164.162L769.6 186.274L773.2 47.5735L679.6 164.162Z" fill="#3483BB" stroke="#3483BB" stroke-width="1.51"/>
<path d="M654.4 87.7764L679.6 164.162L773.2 47.5735L654.4 87.7764Z" fill="#3586BD" stroke="#3586BD" stroke-width="1.51"/>
<path d="M638.2 349.095L690.4 503.877L787.6 455.633L638.2 349.095Z" fill="#2F79B0" stroke="#2F79B0" stroke-width="1.51"/>
<path d="M658 -93.1367L654.4 87.7764L766 -56.9541L658 -93.1367Z" fill="#388AC3" stroke="#388AC3" stroke-width="1.51"/>
<path d="M766 -56.9541L654.4 87.7764L773.2 47.5735L766 -56.9541Z" fill="#3687C0" stroke="#3687C0" stroke-width="1.51"/>
<path d="M577 67.675L654.4 87.7764L658 -93.1367L577 67.675Z" fill="#398AC3" stroke="#398AC3" stroke-width="1.51"/>
<path d="M560.8 -67.0048L577 67.675L658 -93.1367L560.8 -67.0048Z" fill="#3A8DC5" stroke="#3A8DC5" stroke-width="1.51"/>
<path d="M533.8 196.324L638.2 349.095L679.6 164.162L533.8 196.324Z" fill="#3483BA" stroke="#3483BA" stroke-width="1.51"/>
<path d="M638.2 349.095L515.8 405.379L690.4 503.877L638.2 349.095Z" fill="#317CB3" stroke="#317CB3" stroke-width="1.51"/>
<path d="M515.8 405.379L474.4 566.191L690.4 503.877L515.8 405.379Z" fill="#307BB2" stroke="#307BB2" stroke-width="1.51"/>
<path d="M532 371.207L515.8 405.379L638.2 349.095L532 371.207Z" fill="#327FB7" stroke="#327FB7" stroke-width="1.51"/>
<path d="M654.4 87.7764L533.8 196.324L679.6 164.162L654.4 87.7764Z" fill="#3686BE" stroke="#3686BE" stroke-width="1.51"/>
<path d="M577 67.6749L533.8 196.324L654.4 87.7764L577 67.6749Z" fill="#3788C0" stroke="#3788C0" stroke-width="1.51"/>
<path d="M533.8 196.324L532 371.207L638.2 349.095L533.8 196.324Z" fill="#3382B9" stroke="#3382B9" stroke-width="1.51"/>
<path d="M454.6 477.745L474.4 566.191L515.8 405.379L454.6 477.745Z" fill="#317EB4" stroke="#317EB4" stroke-width="1.51"/>
<path d="M463.6 363.166L532 371.207L533.8 196.324L463.6 363.166Z" fill="#3483BB" stroke="#3483BB" stroke-width="1.51"/>
<path d="M422.2 -64.9947L406 33.5024L560.8 -67.0049L422.2 -64.9947Z" fill="#3C91CA" stroke="#3C91CA" stroke-width="1.51"/>
<path d="M560.8 -67.0049L406 33.5024L577 67.6749L560.8 -67.0049Z" fill="#3A8EC6" stroke="#3A8EC6" stroke-width="1.51"/>
<path d="M406 33.5024L533.8 196.324L577 67.6749L406 33.5024Z" fill="#398BC3" stroke="#398BC3" stroke-width="1.51"/>
<path d="M407.8 220.446L463.6 363.166L533.8 196.324L407.8 220.446Z" fill="#3686BE" stroke="#3686BE" stroke-width="1.51"/>
<path d="M406 33.5024L407.8 220.446L533.8 196.324L406 33.5024Z" fill="#388AC3" stroke="#388AC3" stroke-width="1.51"/>
<path d="M463.6 363.166L515.8 405.379L532 371.207L463.6 363.166Z" fill="#3380B8" stroke="#3380B8" stroke-width="1.51"/>
<path d="M463.6 363.166L454.6 477.745L515.8 405.379L463.6 363.166Z" fill="#3280B7" stroke="#3280B7" stroke-width="1.51"/>
<path d="M407.8 220.446L344.8 264.669L463.6 363.166L407.8 220.446Z" fill="#3687BF" stroke="#3687BF" stroke-width="1.51"/>
<path d="M287.2 423.471L454.6 477.745L463.6 363.166L287.2 423.471Z" fill="#3482B9" stroke="#3482B9" stroke-width="1.51"/>
<path d="M344.8 264.669L287.2 423.471L463.6 363.166L344.8 264.669Z" fill="#3685BD" stroke="#3685BD" stroke-width="1.51"/>
<path d="M287.2 423.471L337.6 642.577L454.6 477.745L287.2 423.471Z" fill="#3280B7" stroke="#3280B7" stroke-width="1.51"/>
<path d="M406 33.5024L267.4 192.304L407.8 220.446L406 33.5024Z" fill="#3A8DC6" stroke="#3A8DC6" stroke-width="1.51"/>
<path d="M287.2 -18.7614L406 33.5024L422.2 -64.9948L287.2 -18.7614Z" fill="#3C93CC" stroke="#3C93CC" stroke-width="1.51"/>
<path d="M287.2 -18.7614L267.4 192.304L406 33.5024L287.2 -18.7614Z" fill="#3C91CA" stroke="#3C91CA" stroke-width="1.51"/>
<path d="M267.4 192.304L344.8 264.669L407.8 220.446L267.4 192.304Z" fill="#388AC3" stroke="#388AC3" stroke-width="1.51"/>
<path d="M155.8 497.846L186.4 608.404L287.2 423.471L155.8 497.846Z" fill="#3584BC" stroke="#3584BC" stroke-width="1.51"/>
<path d="M267.4 192.304L128.8 290.801L287.2 423.471L267.4 192.304Z" fill="#388BC3" stroke="#388BC3" stroke-width="1.51"/>
<path d="M287.2 423.471L186.4 608.404L337.6 642.577L287.2 423.471Z" fill="#3381B8" stroke="#3381B8" stroke-width="1.51"/>
<path d="M267.4 192.304L287.2 423.471L344.8 264.669L267.4 192.304Z" fill="#3789C1" stroke="#3789C1" stroke-width="1.51"/>
<path d="M188.2 196.324L128.8 290.801L267.4 192.304L188.2 196.324Z" fill="#3A8EC7" stroke="#3A8EC7" stroke-width="1.51"/>
<path d="M130.6 19.4314L188.2 196.324L267.4 192.304L130.6 19.4314Z" fill="#3C92CB" stroke="#3C92CB" stroke-width="1.51"/>
<path d="M130.6 19.4314L267.4 192.304L287.2 -18.7614L130.6 19.4314Z" fill="#3D93CD" stroke="#3D93CD" stroke-width="1.51"/>
<path d="M186.4 -137.36L130.6 19.4314L287.2 -18.7614L186.4 -137.36Z" fill="#3F99D2" stroke="#3F99D2" stroke-width="1.51"/>
<path d="M128.8 290.801L155.8 497.846L287.2 423.471L128.8 290.801Z" fill="#3789C0" stroke="#3789C0" stroke-width="1.51"/>
<path d="M44.2 326.984L76.6 495.836L128.8 290.801L44.2 326.984Z" fill="#398CC5" stroke="#398CC5" stroke-width="1.51"/>
<path d="M128.8 290.801L76.6001 495.836L155.8 497.846L128.8 290.801Z" fill="#3889C1" stroke="#3889C1" stroke-width="1.51"/>
<path d="M130.6 19.4314L51.3999 132L188.2 196.324L130.6 19.4314Z" fill="#3E95CE" stroke="#3E95CE" stroke-width="1.51"/>
<path d="M6.3999 -121.279L130.6 19.4314L186.4 -137.36L6.3999 -121.279Z" fill="#429CD6" stroke="#429CD6" stroke-width="1.51"/>
<path d="M51.3999 132L128.8 290.801L188.2 196.324L51.3999 132Z" fill="#3C91CA" stroke="#3C91CA" stroke-width="1.51"/>
<path d="M53.1999 53.6039L51.3999 132L130.6 19.4314L53.1999 53.6039Z" fill="#3F98D1" stroke="#3F98D1" stroke-width="1.51"/>
<path d="M51.4 132L44.2 326.984L128.8 290.801L51.4 132Z" fill="#3C91CA" stroke="#3C91CA" stroke-width="1.51"/>
<path d="M6.3999 -121.279L53.1999 53.6039L130.6 19.4314L6.3999 -121.279Z" fill="#419BD5" stroke="#419BD5" stroke-width="1.51"/>
<path d="M-51.2 136.02L44.2001 326.984L51.4001 132L-51.2 136.02Z" fill="#3E95CE" stroke="#3E95CE" stroke-width="1.51"/>
<path d="M6.39999 -121.279L-80 23.4517L53.2 53.6039L6.39999 -121.279Z" fill="#429DD7" stroke="#429DD7" stroke-width="1.51"/>
<path d="M44.2 326.984L-26 473.724L76.6 495.836L44.2 326.984Z" fill="#388CC4" stroke="#388CC4" stroke-width="1.51"/>
<path d="M-51.1999 136.02L-112.4 286.781L44.2001 326.984L-51.1999 136.02Z" fill="#3D94CE" stroke="#3D94CE" stroke-width="1.51"/>
<path d="M-51.2 136.02L51.4001 132L53.2001 53.6039L-51.2 136.02Z" fill="#3F98D2" stroke="#3F98D2" stroke-width="1.51"/>
<path d="M-80 23.4517L-51.2 136.02L53.2 53.6039L-80 23.4517Z" fill="#419BD4" stroke="#419BD4" stroke-width="1.51"/>
<path d="M-112.4 286.781L-25.9999 473.724L44.2001 326.984L-112.4 286.781Z" fill="#3B90C9" stroke="#3B90C9" stroke-width="1.51"/>
<path d="M-92.6001 -147.411L-80.0001 23.4517L6.3999 -121.279L-92.6001 -147.411Z" fill="#45A1DC" stroke="#45A1DC" stroke-width="1.51"/>
</g>
</svg>
